# xmcd
#
# Track frame offsets: 
#        150
#        1526
#        21942
#        38271
#        52159
#        67612
#        86349
#        101671
#        118644
#        132265
#        147704
#        162969
#        184927
#
# Disc length: 2552 seconds
#
# Revision: 3
# Processed by: cddbd v1.5.2PL0 Copyright (c) Steve Scherf et al.
# Submitted via: ExactAudioCopy v0.99pb4
#
DISCID=a109f60d
DTITLE=Николай Резанов и Братья Жемчужные - Докурим свой окурочек
DYEAR=1999
DGENRE=Шансон
TTITLE0=Вступление
TTITLE1=Сталинский червонец
TTITLE2=Солёные грибочки
TTITLE3=На хмельной волне
TTITLE4=Докурим свой окурочек
TTITLE5=Стюардесса
TTITLE6=Дворовый джаз
TTITLE7=Старый саксофон
TTITLE8=Разговор с Авророй
TTITLE9=Биржа
TTITLE10=Тётя Маша
TTITLE11=Дача
TTITLE12=Тётя Фрося
EXTD=
EXTT0=
EXTT1=
EXTT2=
EXTT3=
EXTT4=
EXTT5=
EXTT6=
EXTT7=
EXTT8=
EXTT9=
EXTT10=
EXTT11=
EXTT12=
PLAYORDER=
